<svg xmlns="http://www.w3.org/2000/svg" viewBox="0 0 180 52" fill="none">
  <!-- Wine glass icon mark (left = maroon, right = green) -->
  <g>
    <!-- Left glass: dark maroon -->
    <path d="M14 6 Q8 14 8 22 Q8 29 14 32 L16 38 Q11 38 10 40 L22 40 Q21 38 16 38 L18 32 Q24 29 24 22 Q24 14 18 6 Z" fill="#6B0F1A" stroke="white" stroke-width="1"/>
    <!-- Right glass: green + beige -->
    <path d="M26 6 Q20 14 20 22 Q20 29 26 32 L28 38 Q23 38 22 40 L34 40 Q33 38 28 38 L30 32 Q36 29 36 22 Q36 14 30 6 Z" fill="#C8B49A" stroke="white" stroke-width="1"/>
    <path d="M30 6 Q36 14 36 22 Q36 29 30 32 L28 38 Q33 38 34 40 L34 40 Q33 38 28 38 L30 32 Q36 29 36 22 Q36 14 30 6 Z" fill="#1C5E3D" stroke="none"/>
  </g>
  <!-- Wordmark -->
  <text x="46" y="36" font-family="Inter, system-ui, sans-serif" font-weight="700" font-size="24" letter-spacing="-0.3" fill="#ffffff">Юнити</text>
</svg>
